# xmcd
#
# Track frame offsets:
#       150
#       8795
#       42344
#       61435
#       83740
#       103498
#       105909
#       142794
#       160618
#       183998
#       209802
#       230833
#       265093
#
# Disc length: 3815 seconds
#
# Revision: 0
# Processed by: cddbd v1.4PL0 Copyright (c) Steve Scherf et al.
# Submitted via: CD-DA_X-Tractor v0.23
#
DISCID=ad0ee50d
DTITLE=Oráculo - Rio Claro - Di Doido é Pouco
DYEAR=2002
DGENRE=Hip Hop
TTITLE0=Entrei 
TTITLE1=Di doido é pouco
TTITLE2=Desde Menino
TTITLE3=Chapéu Tolado
TTITLE4=Rima Maloqueira
TTITLE5=Intro-Campo de Batalha
TTITLE6=Campo de Batalha
TTITLE7=Só uma bala
TTITLE8=Inormal
TTITLE9=É mó loucura
TTITLE10=Bolando um som
TTITLE11=Relaxe-Intrum.
TTITLE12=Rima Maloqueira (Live)
EXTD=
EXTT0=
EXTT1=
EXTT2=
EXTT3=
EXTT4=
EXTT5=
EXTT6=
EXTT7=
EXTT8=
EXTT9=
EXTT10=
EXTT11=
EXTT12=
PLAYORDER=
